<?xml version="1.0" encoding="UTF-8"?>
<svg id="Capa_2" data-name="Capa 2" xmlns="http://www.w3.org/2000/svg" viewBox="0 0 1987.16 1085.25">
  <defs>
    <style>
      .cls-1, .cls-2, .cls-3 {
        stroke-width: 0px;
      }

      .cls-2 {
        fill: #1a1a1a;
      }

      .cls-3 {
        fill: #fff;
      }
    </style>
  </defs>
  <path class="cls-1" d="m1153.52,374.19c75.37,0,104.76,40.07,120.77,145.07,18.57,88.91,37.95,177.66,55.15,266.84,4.36,22.59,13.51,34.28,36.03,39.67,20.24,4.84,43.18,10.32,57.85,23.44,18,16.09,39.1,40.3,39.34,61.23.21,18.49-23.04,48.33-41.71,53.96-64.85,19.55-132.42,29.86-198.48,45.7-18.64,4.47-38.88,12.19-52.79,24.67-44.66,40.06-98.25,47.6-174.33,50.49-19.39-4.77-57.28-14.7-95.48-23.19-17.51-3.89-35.75-7.53-53.5-6.85-94.15,3.62-187.18.86-274.88-39.48-11.91-5.48-23.86-11.37-34.6-18.8-73.29-50.71-70.77-119.95,6.19-165.74,16.91-10.06,34.56-22.73,53.12-25.33,40.22-5.65,48.28-31.43,54.4-65.07,13.66-75.12,38.4-148.42,46.39-224.35s55.17-138.31,123.94-138.31m106.96,220.73l-14.84-.35c-6.15,11.19-13.43,21.92-18.28,33.65-26.1,63.23-49.84,127.5-78.06,189.75-13.14,28.99-30.43,67.15-70.46,56.15-36.95-10.15-35.95-50.06-31.77-80.65,12.47-91.13,28.74-181.74,43.26-272.59,2.03-12.74,2.55-25.71,3.77-38.58-4.21-.97-8.41-1.93-12.62-2.9-6.12,15.9-14.39,31.33-18,47.78-18.9,86.16-36.71,172.55-54.73,258.9-13.22,63.37-3.34,84.01,55.47,111.73,16.54,7.79,34.38,13.41,52.17,17.84,110.21,27.46,221.9,28.78,333.26,11.46,47.52-7.39,95.24-20.96,139.55-39.6,46.55-19.58,53.09-42.57,42.39-91.73-8.39-38.58-15.9-77.34-24.17-115.95-13.13-61.27-26.56-122.47-39.98-184.22-40.87,7.96-30.56,35.13-30.36,57.23.48,52.48,4.09,105.09,1.18,157.36-1.64,29.45-15.83,58.57-51.82,59.99-35.07,1.38-44.43-27.51-52.89-54.49-6.06-19.33-11.19-38.95-16.73-58.45-3.22.1-6.44.21-9.66.31-4.24,29.42-7.29,59.07-13.09,88.17-4.82,24.22-9.32,49.74-20.89,70.89-6.46,11.81-27.29,21.99-41.22,21.46-10.91-.41-26.72-16.65-30.59-28.93-9.01-28.63-12.13-59.11-17.64-88.84-7.75-41.81-15.52-83.61-23.28-125.42Zm-51.28-182.45c-78.39,3.73-56.95,2.4-87.42,17.27.24,4.27-5.15,13.26-4.91,17.54,82.36,48.97,176.19,47.39,268.48,55.32-82.94,20.75-163.65,7.5-247.42-17.68-24.38,115.87-57.49,225.73-44.12,343.46,22.88-33.03,38.93-68.12,53.98-103.64,19.5-46.02,35.56-93.76,58.57-137.91,8.79-16.86,35.09-38.03,49.15-35.3,17.91,3.48,39.21,26.74,45.35,45.87,12.32,38.44,15.31,79.87,22.24,120.05,4.11,23.84,8.37,47.65,12.57,71.47,4.1-.15,8.2-.3,12.3-.46,4.84-30.74,8.97-61.6,14.74-92.16,4.36-23.08,7.7-47.24,17.56-68.06,5.58-11.78,23.55-24.72,35.61-24.41,11.95.31,27.37,14.38,34.26,26.43,8.84,15.47,10.24,35.08,15.68,52.64,4.61,14.88,10.41,29.4,15.68,44.08,30.55-52.16,21.73-104.36,17.35-156.22-3.39-40.12-13.67-81.95,30.08-109.41,3.17-1.99,2.77-9.69,5.36-20.08-8.21-19.27-33.49-31.04-86.93-30.87m-489.93,418.4c-8.39,2.98-13.31,4.68-18.21,6.47-37.33,13.61-83.8,26.76-84.53,71.42-.79,48.06,48.81,60.92,86.39,74.18,79.14,27.93,161.09,35.33,244.9,27.01,19.6-1.95,41.33,2.39,60.03,9.35,65.67,24.44,130.88,26.17,196.49,1.86,24.33-9.02,42.93-23.51,41.12-55.62-11.89.98-22.22,2.6-32.55,2.55-100.88-.54-202.49,5.86-302.4-4.35-81.49-8.33-167.01-27.78-191.24-132.87Zm553.73,132.66c72.18,3.96,143.72-2.83,211.67-30.26,14.21-5.73,24.56-21.01,36.7-31.89-11.63-9.73-22.08-21.68-35.18-28.63-15.76-8.36-33.78-12.47-52.33-18.94-32.07,71.49-99.32,84.18-160.86,109.72Z"/>
  <g>
    <path class="cls-1" d="m1749.77,3.03c-29.47,22.32-58.74,44.9-88.39,66.98-14.34,10.68-27.64,23.66-45.18,28.66-9.43,2.69-11.63,7.83-12.93,16.06-6.17,39.1-22.45,73.12-51.72,100.37-14.93,13.9-17.31,13.78-31.33-2.24-8.18,11.45-16.21,22.01-25.56,31.51-10.23,10.39-20.56,15.24-35.11,6.55-11.14-6.65-24.16-8.92-37.44-5.59-2.79.7-7.36,1.23-6.87,3.94,2.43,13.37-7.91,20.92-12.96,30.84-5.35,10.51-3.63,18.63,6.4,27.76.22-4.58.12-8.73.68-12.79,1.63-11.84,7.52-17.02,19.39-16.96,5.36.03,10.71.87,16.08,1.05,4.17.14,6.33,2.1,7.83,5.97,9.61,24.76,15.36,50.01,11.13,76.77-4.06,25.67-3.64,51.4-1.33,77.2,1.12,12.54-.82,22.88-12.85,31.51-32.65,23.44-64.64,47.8-97.97,70.31-22.72,15.34-46.49,20.6-71.3,16.03.78,5.67,2.92,11.04,3.68,16.65.03.22.06.45.08.68,35.21,6.81,68.46,1.19,99.05-21.01,34.66-25.15,66.78-53.21,97.9-82.55,3.96-3.73,3.65-6.29,2.09-10.98-7.33-22.06-6.31-44.27,1.06-66.12,6.77-20.07,14.49-39.64,9.69-61.77-3.53-16.26-8.7-31.72-15.77-46.67-1.14-2.4-5.45-5.5.29-7.5,15.22-5.33,24.63-18.29,36.61-27.83,4.29-3.41,8.4-5.17,13.71-3.89,8.71,2.1,18.25,2.61,25.91,6.68,9.68,5.13,13.45.93,17.49-6.39,10.24-18.53,18.29-38.08,27.24-57.22,10.28-21.98,17.36-45.65,33.63-64.55,23.23-26.99,48.29-52.2,74.02-76.76,16.45-15.71,33.04-31.28,49.87-47.2-3.95-1.64-5.3,1.14-7.13,2.53Z"/>
    <path class="cls-1" d="m1975.25,287.37c-9.48-4.24-14.16-11.2-20.29-16.13-45.77-36.77-97.85-55.86-156.53-56.03-14.58-.04-29.21,2.08-42.23,9.8-5.06,3-8.55,2.28-12.81-2.38-14.4-15.79-29.96-30.15-50.54-38.02-5.34-2.04-8.65-2.51-13.17,1.81-8.38,8-19.2,7.55-26.52-.02-5.87-6.08-6.2-17.22-.7-23.5,6.89-7.86,17.58-8.64,26.56-1.09,4.04,3.39,5.88,4.27,10.06-.18,8.43-8.97,18.57-16.39,25.73-26.54,3.1-4.4,6.66-4.4,11.07-4.15,29.17,1.69,57.05,9.58,84.43,18.82,33.99,11.47,66.7,26.18,96.45,46.54,27.09,18.53,50.8,40.34,63,71.99,2.13,5.51,3.3,11.39,5.47,19.08Z"/>
    <path class="cls-2" d="m1840.71,458.62c-15.82-47.44-45.78-81.69-86.34-107.49-22.64-14.41-46.67-24.75-73.86-25.47-6.48-.17-8.44-3.86-8.86-8.43-1.51-16.38-8.31-30.64-16.47-44.49-3.16-5.37-5.21-9.77-13.06-4.35-8.8,6.06-20.88,2.36-25.95-5.91-4.51-7.36-2.33-17.24,5.19-23.53,7.05-5.9,16.6-5.75,23.16.36.52.49,1.5.85,1.59,1.39,2.37,13.93,12.96,8.36,19.2,6.38,12.66-4.03,26.44-4.68,38.09-11.79,6.72-4.1,12.02-1.52,17.56,2.71,15.88,12.12,29.53,26.65,43.35,40.87,31.1,32.03,57.3,67.88,72.01,110.27,7.5,21.61,15.11,44.73,4.39,69.48Z"/>
    <path class="cls-1" d="m1547.78,312.09c-6.17,8.79-14.3,11.58-22.81,7.97-6.98-2.96-11.31-9.02-10.61-17.98.68-8.7,4.11-14.17,12.78-15.79,10.58-1.98,19.65,1.84,21.54,10.92,1.42,6.81,4.12,7.37,9.92,7.02,18.19-1.07,36.65,1.23,54.45-4.57,4.78-1.56,7.27,2.04,10.15,4.52,26.04,22.37,43.64,51.01,59.56,80.82,18.23,34.14,33.7,69.53,46.74,105.97,1.66,4.63,2.21,9.3-.1,15.58-19.77-29.44-40.48-56.06-64.89-79.5-15.61-14.98-32.06-29.15-52.26-37.85-12.37-5.33-25.34-8.41-38.67-4.57-7.17,2.06-7.97-.67-7.49-6.57,1.92-23.73-5.5-44.98-18.31-65.97Z"/>
    <path class="cls-1" d="m1537.68,759.33c6.6-15.97,11.31-30.71,14.39-46.33,8.67-43.88-16.74-78.22-46.85-94.16-8.28-4.38-9.96-8.03-7.63-16.58,5.84-21.39,1.18-41.95-7.13-62.63-2.73,1.48-5.28,3.14-8.04,4.31-9.4,3.99-20.54-1.01-23.64-10.45-3.34-10.15,1.8-20.32,11.7-23.16,10.55-3.02,21.81,3.06,22.49,13.71.47,7.35,3.12,8.39,9.45,9.08,17.78,1.92,35.39,5.94,53.44,3.95,3.21-.35,4.51.96,5.26,3.77,10.64,39.68,28.27,77.83,26.64,120.21-1.35,35.1-13.88,65.65-37.96,91.36-2.94,3.14-6.2,5.71-12.11,6.92Z"/>
    <path class="cls-1" d="m1675.99,622.82c-1.06-19.95-4.52-39.04-13.88-56.9-16.99-32.43-43.37-50.55-80.1-51.56-8.85-.24-12.17-2.78-13.1-10.9-2.27-19.78-11.11-36.68-23.68-51.77-2.78-3.33-4.94-7.55-9.98-.61-6.28,8.67-19.06,8.06-26.03.41-7.17-7.87-6.82-19.34.77-25.82,8.83-7.53,20.82-6.54,26.71,3.58,4.03,6.93,7.72,7.01,14.8,5.41,16.33-3.67,32.74-6.79,48.16-13.58,3.86-1.7,6.8-.97,9.46,2.28,25.7,31.3,52.56,61.78,66.98,100.65,12.24,32.97,14.08,65.83-.11,98.8Z"/>
    <path class="cls-1" d="m1987.16,85.82c-18.38-9.56-37.69-15.85-58.12-18.19-27.81-3.19-54.38.73-78.43,16.08-4.47,2.86-9.54,6.05-12.09,10.4-6.32,10.77-12.12,10.73-22.1,3.75-19.28-13.48-41.67-18.45-65.05-19.65-5.95-.3-6.13,1.13-5.45,6.4,1.61,12.52-5.5,20.62-17.12,20.81-10.91.18-18.38-7.3-18.06-18.09.34-11.5,8.38-18.23,21.29-16.66,4.64.57,7.34-.14,9.67-4.06,8.8-14.73,19.93-28.12,26.2-44.27,1.95-5.03,4.83-4.45,8.32-3.45,19.13,5.47,39.17,5.21,58.64,7.62,20.61,2.55,41.2,4.55,61.27,9.89,34.22,9.11,66.22,22.63,91.03,49.41Z"/>
    <path class="cls-1" d="m1348.67,774.63c22.93-13.78,35.27-34.04,42.01-58.41,5.29-19.1.34-35.66-12.79-49.53-5.15-5.44-4.61-8.24.57-12.26,15.41-11.96,25.95-27.46,33.15-45.48,1.91-4.78,2.64-6.83-4.08-8.35-12.16-2.74-17.46-14.32-12.99-25.03,3.75-8.97,15.24-12.99,24.56-8.6,9.92,4.68,13.05,15.93,6.5,26.38-2.6,4.15-2.5,6.5.5,10.18,10.95,13.42,22.42,26.4,35.77,37.39,5.15,4.24,6.83,8.23,6.05,14.47-2.28,18.27-10.85,34-20.3,49.11-13.13,20.98-27.61,41.12-47,56.95-11.96,9.76-24.68,18.32-41.32,17.16-3.54-.25-7.11-.09-10.64-3.99Z"/>
    <polygon class="cls-1" points="1281.99 555.92 1286.54 577.44 1276.19 576.32 1274.43 556.45 1281.99 555.92"/>
  </g>
  <g>
    <path class="cls-1" d="m688.8,603.18c1.58-4.82,3.07-9.71,5.16-14.29-15.66-1.65-30.88-7.34-45.67-17.12-34.01-22.51-66.63-46.87-99.94-70.31-12.26-8.63-14.25-18.98-13.1-31.51,2.35-25.8,2.78-51.53-1.35-77.2-4.31-26.75,1.55-52.01,11.35-76.77,1.53-3.87,3.73-5.83,7.99-5.97,5.47-.19,10.94-1.02,16.4-1.05,12.12-.06,18.13,5.12,19.78,16.96.57,4.06.46,8.21.69,12.79,10.23-9.12,11.99-17.25,6.52-27.76-5.15-9.92-15.7-17.47-13.22-30.84.5-2.7-4.17-3.23-7.01-3.94-13.54-3.34-26.82-1.07-38.19,5.59-14.84,8.69-25.38,3.84-35.82-6.55-9.54-9.5-17.72-20.06-26.07-31.51-14.31,16.02-16.73,16.14-31.96,2.24-29.86-27.25-46.47-61.27-52.76-100.37-1.32-8.23-3.57-13.37-13.19-16.06-17.89-5.01-31.46-17.99-46.09-28.66-30.25-22.08-60.11-44.66-90.17-66.98-1.86-1.38-3.24-4.17-7.27-2.53,17.17,15.92,34.09,31.49,50.87,47.2,26.25,24.57,51.81,49.77,75.51,76.76,16.6,18.9,23.82,42.57,34.3,64.55,9.13,19.14,17.34,38.69,27.79,57.22,4.13,7.32,7.97,11.53,17.85,6.39,7.82-4.06,17.55-4.58,26.44-6.68,5.42-1.28,9.61.48,13.98,3.89,12.23,9.54,21.82,22.5,37.35,27.83,5.85,2.01,1.45,5.1.29,7.5-7.22,14.95-12.49,30.41-16.09,46.67-4.9,22.14,2.97,41.7,9.88,61.77,7.52,21.84,8.56,44.06,1.08,66.12-1.59,4.69-1.9,7.25,2.14,10.98,31.74,29.33,64.51,57.4,99.87,82.55,22.34,15.89,46.08,23.29,70.94,23.72.62-1.52,1.2-3.07,1.72-4.65Z"/>
    <path class="cls-1" d="m12.15,318.21c9.67-4.24,14.45-11.2,20.7-16.13,46.69-36.77,99.82-55.86,159.68-56.03,14.88-.04,29.79,2.08,43.08,9.8,5.16,3,8.73,2.28,13.06-2.38,14.69-15.79,30.56-30.15,51.55-38.02,5.45-2.04,8.83-2.51,13.43,1.81,8.55,8,19.59,7.55,27.05-.02,5.99-6.08,6.33-17.22.71-23.5-7.03-7.86-17.94-8.64-27.1-1.09-4.12,3.39-6,4.27-10.27-.18-8.6-8.97-18.95-16.39-26.25-26.54-3.16-4.4-6.79-4.4-11.3-4.15-29.75,1.69-58.2,9.58-86.12,18.82-34.67,11.47-68.04,26.18-98.39,46.54-27.63,18.53-51.82,40.34-64.27,71.99-2.17,5.51-3.36,11.39-5.58,19.08Z"/>
    <path class="cls-2" d="m149.4,489.46c16.14-47.44,46.7-81.69,88.08-107.49,23.1-14.41,47.61-24.75,75.35-25.47,6.61-.17,8.61-3.86,9.04-8.43,1.54-16.38,8.48-30.64,16.8-44.49,3.23-5.37,5.32-9.77,13.33-4.35,8.97,6.06,21.3,2.36,26.47-5.91,4.6-7.36,2.38-17.24-5.3-23.53-7.19-5.9-16.93-5.75-23.63.36-.54.49-1.53.85-1.63,1.39-2.42,13.93-13.22,8.36-19.58,6.38-12.92-4.03-26.97-4.68-38.86-11.79-6.86-4.1-12.26-1.52-17.91,2.71-16.2,12.12-30.13,26.65-44.22,40.87-31.72,32.03-58.45,67.88-73.46,110.27-7.65,21.61-15.41,44.73-4.48,69.48Z"/>
    <path class="cls-1" d="m448.21,342.94c6.29,8.79,14.58,11.58,23.27,7.97,7.12-2.96,11.53-9.02,10.82-17.98-.69-8.7-4.2-14.17-13.04-15.79-10.79-1.98-20.04,1.84-21.98,10.92-1.45,6.81-4.2,7.37-10.12,7.02-18.56-1.07-37.39,1.23-55.54-4.57-4.88-1.56-7.41,2.04-10.36,4.52-26.56,22.37-44.52,51.01-60.76,80.82-18.6,34.14-34.38,69.53-47.68,105.97-1.69,4.63-2.25,9.3.11,15.58,20.17-29.44,41.3-56.06,66.2-79.5,15.92-14.98,32.7-29.15,53.31-37.85,12.62-5.33,25.85-8.41,39.45-4.57,7.31,2.06,8.13-.67,7.64-6.57-1.96-23.73,5.61-44.98,18.68-65.97Z"/>
    <path class="cls-1" d="m458.52,790.17c-6.73-15.97-11.54-30.71-14.68-46.33-8.84-43.88,17.07-78.22,47.79-94.16,8.44-4.38,10.16-8.03,7.78-16.58-5.96-21.39-1.21-41.95,7.28-62.63,2.78,1.48,5.39,3.14,8.2,4.31,9.59,3.99,20.95-1.01,24.12-10.45,3.4-10.15-1.84-20.32-11.94-23.16-10.76-3.02-22.25,3.06-22.94,13.71-.48,7.35-3.19,8.39-9.64,9.08-18.14,1.92-36.1,5.94-54.51,3.95-3.28-.35-4.6.96-5.37,3.77-10.85,39.68-28.84,77.83-27.17,120.21,1.38,35.1,14.16,65.65,38.72,91.36,3,3.14,6.32,5.71,12.36,6.92Z"/>
    <path class="cls-1" d="m317.42,653.66c1.08-19.95,4.61-39.04,14.16-56.9,17.33-32.43,44.24-50.55,81.71-51.56,9.03-.24,12.41-2.78,13.36-10.9,2.32-19.78,11.34-36.68,24.16-51.77,2.83-3.33,5.04-7.55,10.18-.61,6.4,8.67,19.44,8.06,26.55.41,7.31-7.87,6.96-19.34-.79-25.82-9.01-7.53-21.24-6.54-27.24,3.58-4.11,6.93-7.88,7.01-15.1,5.41-16.66-3.67-33.4-6.79-49.12-13.58-3.94-1.7-6.93-.97-9.65,2.28-26.21,31.3-53.61,61.78-68.32,100.65-12.48,32.97-14.36,65.83.12,98.8Z"/>
    <path class="cls-1" d="m0,116.66c18.75-9.56,38.45-15.85,59.29-18.19,28.36-3.19,55.48.73,80,16.08,4.56,2.86,9.73,6.05,12.33,10.4,6.44,10.77,12.36,10.73,22.54,3.75,19.67-13.48,42.5-18.45,66.35-19.65,6.07-.3,6.25,1.13,5.56,6.4-1.64,12.52,5.61,20.62,17.47,20.81,11.13.18,18.74-7.3,18.42-18.09-.34-11.5-8.55-18.23-21.71-16.66-4.73.57-7.48-.14-9.87-4.06-8.98-14.73-20.34-28.12-26.72-44.27-1.99-5.03-4.93-4.45-8.49-3.45-19.52,5.47-39.96,5.21-59.82,7.62-21.03,2.55-42.03,4.55-62.5,9.89C57.95,76.37,25.3,89.88,0,116.66Z"/>
    <path class="cls-1" d="m612.71,800.19c2.47-.34,5.85-3.24,7.92-4.68,2.83-1.98,5.44-3.9,8.64-5.29.7-.3,1.37-.54,2.01-.74-11.11-11.87-18.23-26.23-22.8-42.42-5.4-19.1-.35-35.66,13.05-49.53,5.25-5.44,4.7-8.24-.58-12.26-15.72-11.96-26.47-27.46-33.81-45.48-1.95-4.78-2.69-6.83,4.16-8.35,12.41-2.74,17.82-14.32,13.25-25.03-3.83-8.97-15.54-12.99-25.05-8.6-10.12,4.68-13.31,15.93-6.64,26.38,2.65,4.15,2.55,6.5-.51,10.18-11.17,13.42-22.88,26.4-36.49,37.39-5.25,4.24-6.97,8.23-6.17,14.47,2.33,18.27,11.07,34,20.71,49.11,13.39,20.98,28.16,41.12,47.95,56.95,3.94,3.15,7.96,6.16,12.17,8.77.56-.44,1.29-.76,2.21-.88Z"/>
    <path class="cls-3" d="m635.33,785.06s-8.93,14.4-30.3,19.14l30.3-19.14Z"/>
    <polygon class="cls-1" points="686.32 582.85 679.33 614.52 690.59 610.85 698.96 585.19 686.32 582.85"/>
  </g>
</svg>